<?xml version="1.0" encoding="UTF-8"?>
<svg id="Calque_2" data-name="Calque 2" xmlns="http://www.w3.org/2000/svg" viewBox="0 0 595.28 859.89">
  <defs>
    <style>
      .cls-1 {
        fill: #1d1d1b;
      }
    </style>
  </defs>
  <path class="cls-1" d="M430.78,365.27c-8.9,3.09-14.55,3.5-23.9,3.9-.09.06,7.45-3.25,11-4.78,8.57-3.73,16.04-15.92,18.85-15.74,1.67,0,2.91.64,3.57,2.23-.27-3.95-2.76-6.4-6.04-5.55-3.99,1.05-5.3,3.96-7.96,6.73-3.27,3.59-17.13,12.66-22.25,10.19,2.51-2.32,12.77-13.57,16.9-9.77-.81-14.74-21.73,8.08-22.8,7.77.59-3.85,5.58-11.81,8.95-9.65-4.51-7.71-16.25,11.01-19.02,14.84-2.53,2.49-4.77,2.02-9.28,4.64-1.57-5.65-12.23-33.39-26.67-35.28-3.92-.54-13.13.33-21.15,3.13,1.75-11.66,2.77-27,2.77-44.08,0-14.45-.67-41.89-.59-42.47,0,0,23.27,9.57,34.45,7.18,6.8-7.18,5.99-28.39,6.8-37.84.06-2.02.06-3.52-.12-4.49.89-.84,7.68-9.75,9.28-12.47,2.76-4.93,12.82-22.88,18.35-15.96-.64-6.92-9.38-4.27-13.06.55-2.6,3.61-4.73,6.71-7.76,10.93-.01.15-.68-.1-.68-.34,1.8-5.13,2.81-7.84,3.44-13.9.91-8.95.44-16.94,6.35-14.69-6.35-9.69-9.79,2.77-10.24,12.31-.23,6.1-.86,10.3-4.74,14.31-.53.53-1.55.55-1.58-.3,0-3.11-.08-8.12-1.16-13.34-1.34-6.1-5.53-14.36,4.02-11.42-2.02-1.78-5.59-3.27-7.92-1.24-2.65,2.13-1.34,5.65-.75,8.5.86,3.58,3.13,13.13,1.09,16.97-.15.53-1.31.53-1.67.16-2.53-3.6-7.43-9.67-5.84-12.97.66-.21,1.31.1,1.97.21-3.44-3.63-5.27-1.93-5.32.88-.15,3.63,3.3,9.34,5.77,13.23l-.75,17.46c-2.06,8.19-2.49,16.44-4.82,24.51-7.78-5.96-30.73-22.76-30.73-22.76-2.05-1.98-6.33-13.61-7.42-22.45-1.62-11.29,3.68-17.27,1.49-33.05-2.15-15.9-25.33-49.31-25.33-49.31-1.79-2.85-5.66-3.83-8.59-3.5-2.78.35-6.34,2.45-7.23,5.75,0,0-13.62,38.32-11.52,54.14,2.18,15.79,8.98,20.24,10.53,31.48,1.06,7.7-1.06,13.7-2.23,17-7.5,4.1-29.31,25.47-32.53,34.54-6.31-5.48-11.13-12.18-17.28-18.05l-.41.12-9.89-14.29c.26-4.66-1.42-11.5-3.63-14.36-1.89-2.19-4.33-2.43-4.86,2.54.44-.32.72-1.05,1.51-1.38,3.34,1.68,2.9,9.88,2.77,14.37,0,.53-.93,1.2-1.43.93-3.84-2.2-6.87-12.41-8.32-15.63-1.16-2.65-2.41-6.61-5.78-6.92-3.14-.4-5.36,2.89-6,5.32,6.31-7.58,8.86,3.65,10.2,8.12,1.58,5,3.26,8.84,5.95,13.19.15.34-.14.85-.55.66-4.65-1.7-8.28-5.67-12.07-10.71-5.58-7.7-15.13-16.59-15.1-5.16,4.63-5.89,7.76,1.88,13.35,8.91,3.85,4.91,6.66,9.06,10.89,12.45.58.51.53,1.1-.34.86-4.35-1.36-9.13-4.05-13.72-5.29-5.8-1.6-11.45.72-9.6,7.1,4.05-10.54,20.87,2.38,26.2,4,3.22,1.03,8.31,2.2,11.99,2.34.46.92,1.13,2.11,2.32,3.77,5.87,7.48,16.62,25.73,26.32,28.07,5.85-2.32,15.82-11.88,23.9-21.51,0,0-1.46,28.49-.85,42.96.8,21.34,2.47,40.21,4.79,52.21-6.24.15-26.14,9.84-29.98,14.45-9.4,11.13-9.74,31.31-8.06,44.18h.34c-3.61.97-6.75,5.18-9.73,4.89-3.31-3.31-8.63-15.23-13.27-7.46,3.32-2.15,8.58,5.64,9.24,9.51-1.04.38-2.22.73-4.81,0-2.42-1.66-14.47-21.19-17.33-9.84,4.25-3.83,9.55,8.97,12.12,11.31-4.97,2.53-14.92-5.67-18.27-9.12-2.58-2.75-4.02-5.69-8.12-6.75-3.34-.84-5.53,1.66-6.08,5.69.85-1.56,2.04-2.25,3.72-2.29,2.8-.2,10.41,11.9,18.98,15.53,3.7,1.45,10.46,3.96,14.24,4.28-5.46,4.15-17.95-1.19-26.76-4.68-7.81-2.9-15.45-7.58-19.58,1.58,4.61-4.81,8.66-1.67,14.93,1.19,6.49,2.96,13.5,6.64,19.39,7.96,6.05,1.21,10.72,1.09,15.95-1.4,5.82-2.73,12.65-2.2,18.22-4.97-.73,6.26-5.53,11.25-8.82,16.59-1.62,2.74-3.57,4.73-4.6,7.83-1.09,3.17-3.93,4.47-7.73,4.47,4.48,2.49,9.43,0,11-2.69,1.86-3.46,3.97-5.49,6.35-8.54,4.82-5.8,8.95-13.19,12.68-19.89,3.7-6.6,5.37-13,4.81-20.53-.49-7,3.99-11.15,7.2-20.17,1.3-.77,10.63-3.95,17.92-6.73.39,18.94,2.77,45.17,3.43,55.68,1.69,27.51,4.5,36.83,8.61,48.56,8.28,24.63,18.35,34.27,18.35,65.14,0,66.71-21.91,83.36-19.78,129.55.91,20.26,14.7,35.56,16.16,48.94,4.08,29.68-13.33,52.4-17.75,61.38,2.73-1.95,25.14-23.51,25.25-57.04-.36-27.69-16.37-42.79-8.95-72.11,4.69-18.89,27.29-69.59,27.29-109.63,0-32-8.7-55.14-15.36-80.48-7.41-24.56.23-88.08,8.43-92.74,6.31-3.32,24.21-9.26,26.87-9.88,3.49,6.05,5.93,12.33,10.16,17.96,4.72,5.91,10.27,9.5,17.39,11.96,7.23,2.62,10.2,7.44,16.21,11.81,3.18,2.29,5.64,3.76,8.46,6.53,2.24,2.23,7.69,3.32,11.36-.17-3.59.91-6.63.36-8.63-2.37-1.8-2.78-4.34-4.19-6.63-6.38-4.56-4.25-7.99-9.56-12.75-13.68,6.08-1.59,9.28-5.64,15.4-7.39,5.62-1.68,10.33-1.95,16.28-2.85,5.91-.88,9.93-2.42,16.37-5.03,6.53-2.72,10.67-5.72,14.94-.75-3.57-9.33-11.49-4.93-19.34-2.2"/>
  <path class="cls-1" d="M310.42,721.52c-1.61-27.56-18.54-41.9-12.61-71.55,3.84-19.13,23.76-70.91,21.8-110.92-1.46-31.99-11.22-54.62-19.11-79.59-6.4-17.69-5.8-56.57-1.73-78.13,1.35-7.95,3.39-49.26,3.39-49.26,0,0-1-105.27-1-121.88,0-34.83-13.44-101.64-13.44-101.64-2.81.35-6.36,2.45-7.25,5.75,0,0-13.62,38.32-11.52,54.14,2.18,15.79,8.98,20.24,10.54,31.48,1.04,7.7-1.06,13.7-2.24,17-7.49,4.1-29.31,25.47-32.53,34.54-6.31-5.48-11.13-12.18-17.28-18.05l-.41.12-9.89-14.29c.26-4.66-1.42-11.5-3.63-14.36-1.89-2.19-4.32-2.43-4.86,2.54.44-.32.72-1.05,1.51-1.38,3.35,1.68,2.91,9.88,2.78,14.37-.01.53-.93,1.2-1.44.93-3.84-2.2-6.87-12.41-8.32-15.63-1.16-2.65-2.41-6.61-5.78-6.92-3.14-.4-5.36,2.89-5.99,5.32,6.3-7.58,8.86,3.65,10.19,8.12,1.58,5,3.26,8.84,5.96,13.19.14.34-.15.85-.57.66-4.65-1.7-8.28-5.67-12.07-10.71-5.57-7.7-15.13-16.59-15.09-5.16,4.61-5.89,7.76,1.88,13.33,8.91,3.85,4.91,6.66,9.06,10.89,12.45.58.51.53,1.1-.32.86-4.37-1.36-9.15-4.05-13.73-5.29-5.8-1.6-11.45.72-9.6,7.1,4.05-10.54,20.87,2.38,26.2,4,3.23,1.03,8.31,2.2,12.01,2.34.46.92,1.12,2.11,2.31,3.77,5.87,7.48,16.62,25.73,26.32,28.07,5.85-2.32,15.82-11.88,23.9-21.51,0,0-1.46,28.49-.85,42.96.8,21.34,2.47,40.21,4.81,52.21-6.24.15-26.15,9.84-29.99,14.45-9.4,11.13-9.74,31.31-8.06,44.18h.35c-3.62.97-6.76,5.18-9.74,4.89-3.31-3.31-8.62-15.23-13.27-7.46,3.32-2.15,8.58,5.64,9.24,9.51-1.04.38-2.22.73-4.81,0-2.41-1.66-14.47-21.19-17.33-9.84,4.26-3.83,9.55,8.97,12.12,11.31-4.97,2.53-14.92-5.67-18.26-9.12-2.59-2.75-4.03-5.69-8.13-6.75-3.34-.84-5.53,1.66-6.08,5.69.88-1.56,2.04-2.25,3.72-2.29,2.81-.2,10.41,11.9,18.98,15.53,3.71,1.45,10.47,3.96,14.24,4.28-5.46,4.15-17.95-1.19-26.76-4.68-7.81-2.9-15.45-7.58-19.41,1.58,4.44-4.81,8.49-1.67,14.76,1.19,6.49,2.96,13.5,6.64,19.4,7.96,6.04,1.21,10.72,1.09,15.95-1.4,5.81-2.73,12.65-2.2,18.2-4.97-.73,6.26-5.53,11.25-8.81,16.59-1.64,2.74-3.58,4.73-4.61,7.83-1.09,3.17-3.93,4.47-7.73,4.47,4.48,2.49,9.43,0,11.01-2.69,1.84-3.46,3.96-5.49,6.34-8.54,4.82-5.8,8.95-13.19,12.68-19.89,3.7-6.6,5.37-13,4.81-20.53-.49-7,3.99-11.15,7.2-20.17,1.3-.77,10.63-3.95,17.92-6.73.39,18.94-1.08,41.29-.43,51.82,1.88,27.51,8.35,40.69,12.48,52.42,8.26,24.63,18.33,34.27,18.33,65.14,0,66.71-21.93,83.36-19.78,129.55.91,20.26,14.69,35.56,16.14,48.94,4.08,29.68-13.33,52.4-17.74,61.38,2.6-2,23.8-24.72,22.39-58.2"/>
</svg>