<?xml version="1.0" encoding="UTF-8"?>
<svg id="Calque_2" data-name="Calque 2" xmlns="http://www.w3.org/2000/svg" viewBox="0 0 423.16 446.83">
  <defs>
    <style>
      .cls-1 {
        fill: #1d1d1b;
      }
    </style>
  </defs>
  <g id="Calque_1-2" data-name="Calque 1">
    <path class="cls-1" d="M41.33,181.28c9.71-6.77,16.49,1.16,25.2,4.56,3.55,1.39,7.77.99,10.52,3.01-11.92,9.19-32.87-6.66-37.9,11.27,9.37-6.84,22.35,1.62,33.72-.66,12.41-2.5,22.91-9.43,36.64-3.36,1.5,2.22-15.36,35.18-22.86,34.46,1.4,1.73,4.24,2.86,6.4,2.29,6.13-1.62,18.18-24.06,23.58-30.16,17.02-19.28,20.36-18.58,29.63-44.37.47-1.3-1.03-2.56,2.47-2.92,2.72,8.68,9.97,16.35,10.63,25.72.9,12.58-11.11,51.53-19.34,61.52-19.82,24.07-54.7,16.43-79.81,41.14-24.01,23.62-16.88,36.31-23.55,63.6-5,20.47-26.09,32.17-33.48,50.07-6.58,15.95-1.37,33.24,1.56,49.38l3.71-.58c-1.95-7.81-2.56-17.58-1.46-25.57,3.37-24.6,24.93-35.67,38.73-53.94,13.23-17.52,9.63-40.57,24-56.03,19.28-20.75,55.18-18.1,80.04-30.84,11.46-5.87,25.45-20.99,31.69-32.24l16.77-42.25c1.72-1.6,8.38,5.54,9.29,6.95,11.5,17.85-5.77,34.27-6.3,49.89-.18,5.18,3.35,44.13,4.88,46.45.57.86,8.08,8.82,9.31,5.79-6.33-2.85-6.59-38.1-4.59-38.84,9.34,4.38,13.85,18.16,22.74,22.43,8.66,4.17,28.46,2.23,35.86,5.19,3,1.2,3.22,4.76,5.8,4.13-4.26-19.11-28.84-9.07-40.07-19.13.59-1.12,12.7,1.85,15.75,1.46,3.78-.47,18.29-5.81,20.01-5.48l3.57,4.68-.47-7.6c-11.83-6.61-23.01,7.63-34.11-1.11,3.39-1.04,6.76-3.13,10.2-3.82,2.2-.44,9.92,2.66,7.8-2.23-8.45-4.83-17.48.05-26.07,1.27-.78-6.16,11.53-5.35,11.76-6.02-1.79-7.7-10.91-3.31-16.56-2.19-10.76-9.73,2.48-19.76,6.7-29.98,1.45-3.51,5.12-15.97,4.9-19.31-.94-14.42-21.54-31.72-20.77-38.76.36-3.26,14.21-14.3,17.42-15.97,8.7-4.55,20.33-6.81,29.36-11.15l-10.2,16.93c-4.11,10.58-.9,12.5,7.02,19.12,9.46,7.92,19.46,10.71,30.33,15.67,2.25,11.34,17.28,22.39,18.7,32.85.27,1.98-2.15,3.84-.49,6,6.74-1.91,6.28-9.34,3.87-14.73-.77-1.73-7.48-7.52-4.14-8.57,1.4-.44,24.15,11.9,25.02,14.5.42,1.25-.48,3.93,0,4.08,5.41-.62,7.37-4.39,3.42-8.62-1.79-1.92-24.07-13.85-23.35-15.03l24.07,1.92-.11,7.7c16.97-12.53-12.04-13.94-20.05-15.84l-.37-2.97,12.13-3.03c.05,10.8,8.23.8,2.11-2.88-1.35-.81-15.48-1.95-19.25-3.12-12.69-3.93-24.56-13.45-37.24-17.89,5.57-6.31,11.63-11.79,16.9-18.43,11.48-14.46,15.32-35.97,39.51-23.98,12.63,6.26,14.05,11.25,31.04,11.57,24.24.45,90.02-6.2,43.2-38.18-6.39-4.37-37.07-22.52-42.76-23.41-7.09-1.11-15.56.86-22.82.5-8.31-.41-34.26-3.83-41-7.05-5.64-2.7-25.1-32.73-22.18-33.8,11.11,1.39,29.08-3.38,39.16-1.46,6.87,1.3,14.58,12.85,22.09,4.66l-1.44-4.03-3.76,2.34-10.25-6.37c9.45-6.6,34.4,14.35,29.7-8.17-3.32.7-2.18,4.46-6,4.81-1.92.18-20.15-5.28-21.09-6.27-1.63-2.67.24-2.65,2.45-2.95,5.48-.74,27,.64,28.31-4.72l-2.03-7.12-1.22,5.09c-1.46,2.54-22.83,1.39-23.26.29,1.17-3.83,5.54-4.02,8.05-6.55,3.75-3.8,2.55-12.85-2.97-14.89l-.2,8.05c-2.27,3.36-26.55,17.78-31.4,19.68-14.68,5.75-32.96-1.01-48.15,4.27-5.25,15.22,1.2,31.52,3.98,46.59-37.27,9.64-72.23,25.99-89.47,62.27-1.98.73-14.78-15.4-23.07-14.36-9.1,1.15-22.23,28.18-25.43,36.75-1.16,3.12-1.3,9.09-2.69,11.26-7.54,11.79-22.38-14.64-34.69-8.83-1.24,4.7,11.55,2.26,11.49,9.71-7.41-2.35-29.03-13.37-28.9.04,6.99-4.4,11.45-1.37,17.87,1.84,3.83,4.06-8.98,3.76-10.67,3.56-9.86-1.17-16.42-9.34-26.19-6.01l-3.59,2.79"/>
  </g>
</svg>